<svg width="272" height="238" viewBox="0 0 272 238" fill="none" xmlns="http://www.w3.org/2000/svg">
<path d="M148.741 229.575C148.524 229.585 148.309 229.527 148.126 229.411C147.942 229.294 147.798 229.124 147.714 228.923C147.631 228.722 147.61 228.5 147.657 228.287C147.703 228.074 147.813 227.881 147.973 227.733L148.046 227.443C148.036 227.42 148.026 227.397 148.017 227.374C147.798 226.856 147.431 226.414 146.963 226.104C146.494 225.795 145.945 225.631 145.384 225.633C144.823 225.635 144.275 225.803 143.809 226.116C143.343 226.429 142.979 226.874 142.764 227.393C141.905 229.467 140.812 231.544 140.542 233.737C140.424 234.706 140.474 235.688 140.69 236.64C138.672 232.229 137.625 227.435 137.618 222.582C137.617 221.364 137.685 220.148 137.82 218.937C137.932 217.945 138.087 216.96 138.285 215.982C139.366 210.676 141.688 205.703 145.06 201.471C146.692 200.578 148.012 199.206 148.841 197.539C149.142 196.94 149.354 196.3 149.472 195.639C149.288 195.664 148.778 192.854 148.917 192.681C148.66 192.291 148.201 192.097 147.921 191.717C146.527 189.823 144.608 190.154 143.605 192.727C141.464 193.81 141.444 195.606 142.757 197.333C143.593 198.432 143.708 199.919 144.441 201.096C144.366 201.192 144.287 201.286 144.212 201.383C142.833 203.16 141.631 205.069 140.623 207.081C140.868 204.827 140.576 202.546 139.77 200.427C138.953 198.452 137.422 196.789 136.074 195.082C134.454 193.031 131.133 193.926 130.848 196.526C130.845 196.551 130.843 196.576 130.84 196.601C131.04 196.714 131.236 196.835 131.428 196.962C131.669 197.123 131.856 197.354 131.964 197.623C132.072 197.893 132.096 198.189 132.033 198.472C131.97 198.756 131.824 199.014 131.612 199.212C131.401 199.411 131.134 199.541 130.848 199.585L130.819 199.589C130.89 200.313 131.016 201.03 131.196 201.734C129.466 208.438 133.201 210.879 138.532 210.989C138.65 211.049 138.765 211.11 138.882 211.167C137.87 214.043 137.235 217.038 136.993 220.078C136.856 221.871 136.864 223.672 137.017 225.464L137.008 225.401C136.622 223.408 135.561 221.61 134.006 220.311C131.695 218.408 128.43 217.708 125.937 216.178C125.672 216.008 125.364 215.917 125.049 215.916C124.734 215.915 124.426 216.005 124.16 216.174C123.894 216.343 123.683 216.585 123.549 216.871C123.416 217.157 123.367 217.475 123.409 217.788C123.412 217.81 123.416 217.832 123.419 217.855C123.791 218.006 124.152 218.181 124.502 218.378C124.703 218.491 124.899 218.611 125.091 218.738C125.331 218.9 125.518 219.13 125.626 219.4C125.734 219.669 125.758 219.965 125.696 220.249C125.633 220.532 125.486 220.79 125.275 220.989C125.063 221.187 124.797 221.317 124.511 221.362L124.481 221.366C124.46 221.369 124.442 221.372 124.421 221.375C125.056 222.895 125.947 224.293 127.055 225.51C128.137 231.362 132.782 231.917 137.751 230.213H137.754C138.299 232.587 139.089 234.898 140.111 237.109H148.53C148.561 237.015 148.588 236.918 148.615 236.825C147.836 236.874 147.053 236.827 146.285 236.685C146.91 235.917 147.535 235.143 148.159 234.375C148.173 234.36 148.186 234.345 148.198 234.329C148.515 233.936 148.835 233.546 149.152 233.153L149.152 233.152C149.169 231.947 149.031 230.745 148.742 229.575L148.741 229.575Z" fill="#57AA5F"/>
<path d="M136.267 96.1461C126.78 96.1461 117.507 93.3267 109.618 88.0444C101.73 82.762 95.5825 75.2541 91.952 66.4699C88.3216 57.6856 87.3717 48.0198 89.2225 38.6945C91.0733 29.3692 95.6416 20.8034 102.35 14.0803C109.058 7.35716 117.605 2.77864 126.909 0.923732C136.214 -0.931177 145.858 0.0208285 154.623 3.65936C163.388 7.2979 170.879 13.4595 176.15 21.3651C181.42 29.2707 184.234 38.5651 184.234 48.0731C184.219 60.8184 179.161 73.0376 170.169 82.0499C161.176 91.0622 148.984 96.1317 136.267 96.1461ZM136.267 0.757078C126.93 0.757078 117.802 3.53211 110.038 8.73126C102.274 13.9304 96.2232 21.3202 92.6499 29.966C89.0766 38.6119 88.1417 48.1256 89.9633 57.304C91.785 66.4824 96.2814 74.9133 102.884 81.5305C109.487 88.1478 117.899 92.6542 127.057 94.4799C136.215 96.3056 145.707 95.3686 154.334 91.7874C162.961 88.2061 170.334 82.1415 175.522 74.3605C180.709 66.5794 183.478 57.4313 183.478 48.0731C183.464 35.5285 178.486 23.5017 169.635 14.6313C160.784 5.76087 148.784 0.771254 136.267 0.757078Z" fill="#CBCBCB"/>
<path d="M141.527 65.4854H131.33C130.829 65.4854 130.349 65.286 129.995 64.9311C129.64 64.5761 129.441 64.0947 129.441 63.5928C129.441 63.0908 129.64 62.6094 129.995 62.2545C130.349 61.8995 130.829 61.7001 131.33 61.7001H141.527C142.028 61.7001 142.509 61.8995 142.863 62.2545C143.217 62.6094 143.416 63.0908 143.416 63.5928C143.416 64.0947 143.217 64.5761 142.863 64.9311C142.509 65.286 142.028 65.4854 141.527 65.4854Z" fill="#CBCBCB"/>
<path d="M143.87 120.416H128.987C128.256 120.416 127.555 120.125 127.038 119.607C126.521 119.089 126.23 118.387 126.23 117.654C126.23 116.921 126.521 116.219 127.038 115.701C127.555 115.183 128.256 114.892 128.987 114.892H143.87C144.6 114.892 145.302 115.183 145.818 115.701C146.335 116.219 146.626 116.921 146.626 117.654C146.626 118.387 146.335 119.089 145.818 119.607C145.302 120.125 144.6 120.416 143.87 120.416Z" fill="#0296DD"/>
<path d="M186.176 108.838H86.6836C85.7971 108.837 84.9472 108.484 84.3203 107.856C83.6935 107.227 83.3409 106.376 83.3398 105.487V75.7596C83.3409 74.8712 83.6935 74.0194 84.3203 73.3912C84.9472 72.7629 85.7971 72.4095 86.6836 72.4085H186.176C187.063 72.4095 187.912 72.7629 188.539 73.3912C189.166 74.0194 189.519 74.8712 189.52 75.7596V105.487C189.519 106.376 189.166 107.227 188.539 107.856C187.912 108.484 187.063 108.837 186.176 108.838Z" fill="#CBCBCB"/>
<path d="M176.511 106.578H88.9414C88.0549 106.577 87.205 106.223 86.5781 105.595C85.9513 104.967 85.5987 104.115 85.5977 103.227V78.0217C85.5987 77.1333 85.9513 76.2815 86.5781 75.6532C87.205 75.025 88.0549 74.6716 88.9414 74.6706H183.923C184.809 74.6716 185.659 75.025 186.286 75.6532C186.913 76.2815 187.265 77.1333 187.266 78.0217V95.7986C187.263 98.6564 186.129 101.396 184.113 103.417C182.096 105.438 179.362 106.575 176.511 106.578Z" fill="white"/>
<path d="M146.304 83.6346H106.315C106.087 83.6346 105.867 83.5436 105.706 83.3815C105.544 83.2194 105.453 82.9996 105.453 82.7703C105.453 82.5411 105.544 82.3213 105.706 82.1592C105.867 81.9971 106.087 81.9061 106.315 81.9061H146.304C146.533 81.9061 146.752 81.9971 146.914 82.1592C147.075 82.3213 147.166 82.5411 147.166 82.7703C147.166 82.9996 147.075 83.2194 146.914 83.3815C146.752 83.5436 146.533 83.6346 146.304 83.6346Z" fill="#0296DD"/>
<path d="M166.547 87.1696H106.315C106.087 87.1696 105.867 87.0786 105.706 86.9165C105.544 86.7544 105.453 86.5346 105.453 86.3053C105.453 86.0761 105.544 85.8563 105.706 85.6942C105.867 85.5321 106.087 85.4411 106.315 85.4411H166.547C166.775 85.4411 166.995 85.5321 167.156 85.6942C167.318 85.8563 167.409 86.0761 167.409 86.3053C167.409 86.5346 167.318 86.7544 167.156 86.9165C166.995 87.0786 166.775 87.1696 166.547 87.1696Z" fill="#DADADA"/>
<path d="M166.545 91.2271H106.313C106.2 91.2273 106.088 91.2051 105.983 91.1618C105.878 91.1185 105.783 91.0549 105.702 90.9746C105.622 90.8943 105.558 90.7989 105.515 90.694C105.472 90.589 105.449 90.4765 105.449 90.3628C105.449 90.2492 105.472 90.1366 105.515 90.0316C105.558 89.9267 105.622 89.8313 105.702 89.751C105.783 89.6708 105.878 89.6071 105.983 89.5638C106.088 89.5205 106.2 89.4983 106.313 89.4985H166.545C166.773 89.499 166.992 89.5903 167.153 89.7523C167.314 89.9143 167.405 90.1339 167.405 90.3628C167.405 90.5917 167.314 90.8113 167.153 90.9733C166.992 91.1353 166.773 91.2266 166.545 91.2271Z" fill="#DADADA"/>
<path d="M166.545 95.2848H106.313C106.2 95.285 106.088 95.2628 105.983 95.2195C105.878 95.1762 105.783 95.1125 105.702 95.0323C105.622 94.952 105.558 94.8566 105.515 94.7516C105.472 94.6467 105.449 94.5341 105.449 94.4205C105.449 94.3068 105.472 94.1943 105.515 94.0893C105.558 93.9843 105.622 93.889 105.702 93.8087C105.783 93.7284 105.878 93.6648 105.983 93.6215C106.088 93.5782 106.2 93.556 106.313 93.5562H166.545C166.773 93.5567 166.992 93.648 167.153 93.81C167.314 93.972 167.405 94.1916 167.405 94.4205C167.405 94.6494 167.314 94.8689 167.153 95.031C166.992 95.193 166.773 95.2843 166.545 95.2848Z" fill="#DADADA"/>
<path d="M166.545 99.3423H106.313C106.2 99.3425 106.088 99.3204 105.983 99.277C105.878 99.2337 105.783 99.1701 105.702 99.0898C105.622 99.0095 105.558 98.9142 105.515 98.8092C105.472 98.7042 105.449 98.5917 105.449 98.478C105.449 98.3644 105.472 98.2519 105.515 98.1469C105.558 98.0419 105.622 97.9465 105.702 97.8663C105.783 97.786 105.878 97.7224 105.983 97.679C106.088 97.6357 106.2 97.6135 106.313 97.6138H166.545C166.773 97.6143 166.992 97.7055 167.153 97.8676C167.314 98.0296 167.405 98.2491 167.405 98.478C167.405 98.7069 167.314 98.9265 167.153 99.0885C166.992 99.2506 166.773 99.3418 166.545 99.3423Z" fill="#DADADA"/>
<path d="M219.468 233.111L215.427 233.111L213.504 217.486L219.47 217.487L219.468 233.111Z" fill="#A0616A"/>
<path d="M219.609 237.337L207.18 237.337V237.179C207.18 235.893 207.69 234.66 208.597 233.751C209.504 232.842 210.734 232.331 212.017 232.331H212.018L214.288 230.604L218.524 232.331L219.609 232.331L219.609 237.337Z" fill="#2F2E41"/>
<path d="M252.512 227.924L248.89 229.722L240.246 216.577L245.592 213.924L252.512 227.924Z" fill="#A0616A"/>
<path d="M254.511 231.648L243.373 237.177L243.304 237.036C242.734 235.884 242.644 234.552 243.055 233.334C243.465 232.115 244.341 231.11 245.491 230.539L245.491 230.539L246.761 227.982L251.321 227.644L252.293 227.162L254.511 231.648Z" fill="#2F2E41"/>
<path d="M207.492 149.127C207.492 149.127 202.891 155.555 206.212 166.66C209.533 177.766 207.669 187.694 208.601 189.685C209.533 191.676 211.41 193.567 209.859 195.076C208.308 196.586 207.492 197.813 208.717 198.222C209.941 198.631 214.024 227.27 214.024 227.27L220.963 227.68C220.963 227.68 223.477 214.376 220.792 203.64C220.792 203.64 221.381 195.846 220.152 193.556C218.922 191.267 219.163 193.332 219.247 190.458C219.293 188.38 219.595 186.316 220.147 184.312C220.555 182.675 220.792 166.181 220.792 166.181L227.547 188.069C227.818 188.823 227.92 189.628 227.845 190.426C227.678 191.554 227.677 193.239 227.881 193.828C228.086 194.418 228.314 194.542 228.2 195.707C228.086 196.872 241.683 221.439 241.683 221.439L248.439 216.897L241.783 195.358C241.122 194.624 240.572 193.797 240.15 192.903C239.333 191.267 239.302 191.177 239.726 189.994C240.15 188.812 240.15 186.509 240.15 185.819C240.15 185.13 240.574 153.833 235.259 149.229C229.944 144.626 207.492 149.127 207.492 149.127Z" fill="#2F2E41"/>
<path d="M232.449 99.3345L231.066 95.3891L227.289 91.6038L220.322 90.7702L215.787 93.7586L211.586 97.9086L205.383 149.519C205.383 149.519 234.685 160.841 238.524 151.339L232.449 99.3345Z" fill="#CCCCCC"/>
<path d="M234.825 99.3345L230.755 95.2554C230.755 95.2554 228.811 121.325 229.639 123.159C230.468 124.992 231.443 124.524 230.389 125.515C229.335 126.507 228.202 125.523 229.335 127.34C230.002 128.358 230.33 129.563 230.27 130.78C230.27 130.78 236.133 167.766 239.532 167.766C242.931 167.766 245.059 166.769 244.94 165.753C244.82 164.738 242.815 162.209 243.44 161.581C244.064 160.953 245.605 161.427 244.079 160.244C242.554 159.06 241.798 159.438 242.176 157.924C242.554 156.41 239.666 136.782 239.666 136.782L239.385 103.996L234.825 99.3345Z" fill="#3F3D56"/>
<path d="M215.788 93.7586L210.517 94.5061L204.251 96.9033C204.251 96.9033 207.113 129.261 206.515 130.344C205.918 131.427 204.856 130.751 205.765 131.846C206.673 132.942 207.49 132.456 206.515 133.456C205.54 134.456 203.898 133.189 204.908 134.958C205.918 136.727 201.052 161.082 202.362 162.389C203.672 163.695 207.048 162.882 207.049 161.917C206.946 160.878 206.554 159.888 205.918 159.06C205.735 158.85 205.634 158.581 205.634 158.303C205.634 158.025 205.735 157.756 205.918 157.546C206.453 157.03 206.82 156.364 206.972 155.636C207.051 154.896 207.628 153.987 207.906 153.306C208.184 152.625 215.187 106.524 215.187 106.524L215.788 93.7586Z" fill="#3F3D56"/>
<path d="M193.297 119.236L195.674 117.992C192.706 115.309 185.341 110.919 185.341 110.919L172.649 102.343C172.463 101.905 172.165 101.523 171.785 101.237C171.405 100.95 170.957 100.769 170.485 100.712C170.014 100.654 169.535 100.722 169.098 100.909C168.661 101.096 168.28 101.395 167.995 101.776C167.71 102.157 167.529 102.606 167.473 103.079C167.416 103.552 167.484 104.031 167.671 104.469C167.858 104.907 168.157 105.288 168.537 105.574C168.917 105.859 169.366 106.039 169.838 106.096L184.062 118.868L193.297 119.236Z" fill="#A0616A"/>
<path d="M210.671 109.773L210.697 99.3128L204.899 96.5337L190.276 112.044L189.143 111.287H186.499L180.078 118.858C180.078 118.858 183.498 120.889 185.187 120.063C186.877 119.236 186.718 120.423 186.718 120.423C186.968 120.739 187.318 120.961 187.71 121.054C188.102 121.146 188.513 121.104 188.878 120.933C190.276 120.372 192.92 121.886 192.92 121.886L210.671 109.773Z" fill="#3F3D56"/>
<path d="M224.568 88.3672C229.238 88.3672 233.023 84.5733 233.023 79.8933C233.023 75.2133 229.238 71.4195 224.568 71.4195C219.899 71.4195 216.113 75.2133 216.113 79.8933C216.113 84.5733 219.899 88.3672 224.568 88.3672Z" fill="#A0616A"/>
<path d="M234.776 82.0448C233.978 83.6104 232.907 85.0202 231.613 86.2075C231.241 86.6306 230.768 86.9508 230.237 87.1374C229.97 87.2246 229.681 87.2152 229.421 87.111C229.16 87.0067 228.945 86.8142 228.811 86.567L228.654 86.3524C229.107 86.2135 229.535 86.0016 229.92 85.725C230.111 85.5857 230.267 85.4026 230.373 85.191C230.48 84.9794 230.534 84.7454 230.532 84.5084C230.519 84.2716 230.414 84.0493 230.24 83.8883C230.066 83.7273 229.837 83.6401 229.6 83.645C229.072 83.7079 228.6 84.3261 228.127 84.0878C227.744 83.893 227.799 83.3354 227.909 82.9143C228.497 80.717 228.251 77.311 227.404 77.1919C226.562 77.0201 225.76 76.691 225.039 76.2218C224.318 75.7519 223.512 75.4271 222.667 75.2655C222.606 75.2575 222.544 75.2531 222.478 75.2478C222.454 74.7947 222.376 74.3463 222.244 73.9121C222.152 74.3706 222.012 74.8179 221.825 75.2465C221.093 75.3465 220.354 75.384 219.615 75.3585C218.828 75.2669 216.566 77.105 216.549 76.8521C216.525 76.399 216.446 75.9505 216.315 75.5164C216.223 75.9748 216.083 76.4222 215.896 76.8508C215.888 76.8683 215.884 76.8831 215.875 76.9006C215.635 76.3129 215.566 75.6558 215.572 76.1465C215.067 73.0239 216.069 71.1439 218.626 69.2922C219.136 68.8838 219.742 68.612 220.386 68.5024C220.708 68.4509 221.038 68.4832 221.343 68.5964C221.649 68.7095 221.92 68.8997 222.131 69.1484C223.113 68.6279 224.216 68.38 225.325 68.4304C226.435 68.4808 227.511 68.8276 228.441 69.435C230.281 70.6699 231.732 71.4916 231.487 73.6999C233.23 73.8682 234.703 75.2715 235.253 76.9346C235.8 78.6003 235.516 80.4592 234.776 82.0448Z" fill="#2F2E41"/>
<path d="M245.566 126.2L239.5 125.329C237.448 128.767 236.719 137.918 236.719 137.918L230.783 152.059C230.39 152.327 230.074 152.694 229.867 153.122C229.66 153.551 229.57 154.027 229.605 154.502C229.64 154.977 229.799 155.435 230.067 155.828C230.334 156.222 230.701 156.538 231.129 156.745C231.557 156.952 232.032 157.042 232.506 157.006C232.98 156.97 233.436 156.81 233.828 156.542C234.221 156.273 234.536 155.906 234.742 155.476C234.948 155.047 235.037 154.571 235.001 154.096L244.748 137.636L245.566 126.2Z" fill="#A0616A"/>
<path d="M231.598 105.119L234.168 101.571L239.38 103.998L243.715 120.757C243.715 120.757 246.88 122.821 246.205 124.278C245.53 125.734 245.171 126.909 245.869 127.744C246.567 128.578 248.6 128.64 247.086 130C245.571 131.361 246.867 134.916 246.867 134.916L245.416 138.163L236.352 137.784L231.598 105.119Z" fill="#3F3D56"/>
<path d="M21.9567 157.095C22.5289 156.645 22.9033 155.989 23.0003 155.267C23.0973 154.544 22.9092 153.813 22.4761 153.227C22.3862 153.109 22.2867 153 22.1787 152.898L26.0492 143.941L22.205 140.373L18.2266 153.219C17.8426 153.7 17.6285 154.295 17.6176 154.911C17.6067 155.527 17.7996 156.13 18.1663 156.625C18.3776 156.904 18.6418 157.139 18.9437 157.316C19.2457 157.493 19.5795 157.609 19.9261 157.657C20.2727 157.705 20.6254 157.684 20.9639 157.595C21.3024 157.506 21.6201 157.352 21.899 157.14C21.9185 157.125 21.9377 157.11 21.9567 157.095Z" fill="#FFB6B6"/>
<path d="M44.4392 98.9851C44.4392 98.9851 41.574 93.5262 34.9275 99.4214C28.281 105.317 20.4269 134.825 20.5794 135.934C20.7319 137.044 22.3565 136.605 20.3017 138.202C18.2469 139.799 17.1107 138.364 18.2469 139.799C19.383 141.234 21.9237 142.755 19.6741 142.968C17.4245 143.181 25.6712 146.737 25.6712 146.737C25.6712 146.737 26.9684 146.425 27.3663 143.426C27.5898 141.741 26.8324 140.784 28.1657 140.503C29.499 140.223 28.2493 137.176 28.4412 136.696C28.6331 136.217 39.2792 115.279 39.2792 115.279L44.4392 98.9851Z" fill="#0296DD"/>
<path d="M57.5246 232.305L62.3371 232.304L64.627 213.698L57.5234 213.699L57.5246 232.305Z" fill="#FFB6B6"/>
<path d="M57.3557 237.337L72.1566 237.337V237.149C72.1565 235.618 71.5495 234.149 70.4691 233.066C69.3888 231.984 67.9235 231.375 66.3957 231.375H66.3953L63.6917 229.32L58.6475 231.376L57.3555 231.376L57.3557 237.337Z" fill="#2F2E41"/>
<path d="M23.7891 223.432L27.7261 226.206L40.2782 212.306L34.4667 208.211L23.7891 223.432Z" fill="#FFB6B6"/>
<path d="M20.7617 227.45L32.8693 235.982L32.977 235.829C33.8557 234.576 34.202 233.025 33.9397 231.517C33.6773 230.008 32.8279 228.666 31.5781 227.785L31.5778 227.785L30.5461 224.545L25.2399 223.319L24.1829 222.574L20.7617 227.45Z" fill="#2F2E41"/>
<path d="M38.3463 139.74L37.9464 140.596C35.3176 146.224 34.6455 152.516 35.6671 158.646C35.743 158.885 35.7285 159.144 35.6263 159.373C34.9928 160.118 35.9868 163.354 36.5565 165.16L37.0701 168.355C37.0701 168.355 36.2185 171.322 37.5119 171.104C38.8054 170.886 36.8793 174.051 38.1131 174.844L41.3136 194.756L27.9609 216.812L32.9064 223.999L52.688 198.473L52.9353 175.426L55.9026 194.012L56.1498 223.255L65.1468 222.297L68.4431 193.945L65.2989 154.737L60.3534 137.737L38.3463 139.74Z" fill="#2F2E41"/>
<path d="M44.5304 88.6927L51.8089 89.0401L55.2895 95.0664C56.833 95.5305 58.2527 96.336 59.444 97.4236C60.6352 98.5111 61.5675 99.8529 62.1721 101.35L64.4386 106.962L61.8603 139.409C61.8603 139.409 61.3435 141.371 62.2951 141.085C63.2467 140.798 62.8588 143.257 62.8588 143.257L66.366 156.777L34.4791 153.998L36.2497 139.674C36.2497 139.674 33.788 139.754 35.5189 138.019C37.2498 136.284 38.0915 136.837 36.4288 134.786C34.766 132.735 34.5188 131.248 34.5188 131.248L33.7769 121.088L32.554 106.788C32.3599 104.519 32.7317 102.237 33.6357 100.148C34.5398 98.0586 35.9479 96.2272 37.7333 94.8186L44.5304 88.6927Z" fill="#0296DD"/>
<path d="M48.3047 87.0195C53.4026 87.0195 57.5352 82.8776 57.5352 77.7684C57.5352 72.6593 53.4026 68.5174 48.3047 68.5174C43.2068 68.5174 39.0742 72.6593 39.0742 77.7684C39.0742 82.8776 43.2068 87.0195 48.3047 87.0195Z" fill="#FFB6B6"/>
<path d="M44.738 86.2613C47.3868 86.1742 47.6274 85.473 50.2762 85.3859C51.1196 85.3582 52.1149 85.2423 52.5226 84.5018C52.6413 84.2244 52.6942 83.9232 52.677 83.6219C52.6599 83.3205 52.5732 83.0273 52.4238 82.7652C52.1216 82.2449 51.8491 81.7078 51.6078 81.1565C51.4625 80.7241 51.4243 80.2627 51.4967 79.8123C51.5691 79.3618 51.7499 78.9359 52.0234 78.5711C52.2969 78.2064 52.6549 77.9139 53.0665 77.7189C53.4781 77.5239 53.9309 77.4323 54.3857 77.452C55.1917 77.4869 55.9488 77.8668 56.7526 77.9363C57.855 78.0315 60.2928 74.3835 59.7852 73.3981C59.2912 72.4389 58.2969 71.7152 58.1406 70.6471C58.0384 69.9486 58.3261 69.2545 58.3654 68.5496C58.4237 67.5044 55.7801 69.8611 56.2642 68.9335C57.4519 66.658 46.2603 63.8371 44.4178 66.6873C43.7292 67.7526 42.502 67.6799 41.4082 68.3196C40.6912 68.7389 38.881 70.1855 38.4694 71.0871C38.0913 72.0071 37.9126 72.9971 37.9452 73.9916C37.9286 78.6165 38.6317 82.8708 42.3539 85.6046" fill="#2F2E41"/>
<path d="M70.9424 156.697C70.398 156.214 70.0634 155.537 70.0096 154.81C69.9558 154.083 70.1871 153.364 70.6543 152.805C70.7511 152.693 70.8569 152.589 70.9708 152.495L67.6406 143.322L71.6905 139.99L74.8967 153.051C75.2513 153.554 75.4296 154.161 75.4038 154.777C75.378 155.393 75.1495 155.983 74.7541 156.454C74.5265 156.721 74.2488 156.94 73.9368 157.098C73.6248 157.257 73.2847 157.353 72.9359 157.38C72.587 157.407 72.2363 157.365 71.9036 157.256C71.571 157.147 71.263 156.974 70.9973 156.746C70.9788 156.73 70.9604 156.714 70.9424 156.697Z" fill="#FFB6B6"/>
<path d="M51.9531 97.3459C51.9531 97.3459 55.1383 92.0681 61.4218 98.3505C67.7054 104.633 73.7879 134.558 73.5696 135.657C73.3512 136.755 71.7557 136.22 73.7117 137.937C75.6677 139.654 76.8873 138.29 75.6677 139.654C74.4482 141.019 71.8215 142.384 74.0543 142.732C76.2872 143.08 67.8434 146.136 67.8434 146.136C67.8434 146.136 66.5672 145.747 66.3486 142.729C66.2258 141.033 67.0388 140.124 65.7246 139.764C64.4104 139.404 65.8394 136.437 65.6764 135.947C65.5133 135.457 56.1334 113.919 56.1334 113.919L51.9531 97.3459Z" fill="#0296DD"/>
<path d="M143.803 47.0399C143.803 48.5376 143.36 50.0018 142.53 51.2473C141.701 52.4928 140.521 53.4636 139.14 54.0371C137.76 54.6106 136.241 54.761 134.775 54.4691C133.309 54.1773 131.963 53.4565 130.906 52.3977C129.849 51.3389 129.129 49.9898 128.837 48.521C128.545 47.0522 128.694 45.5296 129.266 44.1457C129.837 42.7619 130.805 41.579 132.048 40.7466C133.29 39.9142 134.751 39.4697 136.245 39.4694C137.238 39.468 138.221 39.6629 139.138 40.0429C140.055 40.4228 140.889 40.9803 141.591 41.6835C142.293 42.3867 142.85 43.2218 143.229 44.1409C143.609 45.0601 143.804 46.0452 143.803 47.0399Z" fill="#0296DD"/>
<path d="M136.409 48.1373C137.87 48.1373 139.053 46.9509 139.053 45.4876C139.053 44.0242 137.87 42.8379 136.409 42.8379C134.949 42.8379 133.766 44.0242 133.766 45.4876C133.766 46.9509 134.949 48.1373 136.409 48.1373Z" fill="white"/>
<path d="M139.245 49.084H133.58C133.229 49.0844 132.893 49.2241 132.645 49.4725C132.398 49.7208 132.258 50.0576 132.258 50.4088C132.338 51.5435 132.515 52.6693 132.787 53.7739C133.923 54.3607 135.189 54.6488 136.467 54.611C137.744 54.5733 138.991 54.211 140.091 53.5582C140.334 52.5229 140.493 51.4697 140.567 50.4088C140.567 50.0576 140.427 49.7208 140.179 49.4725C139.932 49.2241 139.596 49.0844 139.245 49.084Z" fill="white"/>
<path d="M0.902346 237.55C0.90217 237.609 0.913678 237.667 0.936204 237.722C0.95873 237.777 0.991827 237.827 1.0336 237.868C1.07537 237.91 1.125 237.944 1.17961 237.966C1.23422 237.989 1.29274 238 1.35182 238H271.508C271.628 238 271.742 237.953 271.826 237.868C271.911 237.784 271.958 237.669 271.958 237.55C271.958 237.43 271.911 237.316 271.826 237.231C271.742 237.147 271.628 237.099 271.508 237.099H1.35182C1.29275 237.099 1.23422 237.11 1.17961 237.133C1.125 237.156 1.07538 237.189 1.03361 237.231C0.991833 237.273 0.95873 237.322 0.936204 237.377C0.913677 237.432 0.902172 237.49 0.902346 237.55Z" fill="#CCCCCC"/>
</svg>
